<?xml version="1.0" encoding="UTF-8" standalone="no"?>
<!-- Created with Inkscape (http://www.inkscape.org/) -->

<svg
   xmlns:dc="http://purl.org/dc/elements/1.1/"
   xmlns:cc="http://creativecommons.org/ns#"
   xmlns:rdf="http://www.w3.org/1999/02/22-rdf-syntax-ns#"
   xmlns:svg="http://www.w3.org/2000/svg"
   xmlns="http://www.w3.org/2000/svg"
   xmlns:sodipodi="http://sodipodi.sourceforge.net/DTD/sodipodi-0.dtd"
   xmlns:inkscape="http://www.inkscape.org/namespaces/inkscape"
   width="200mm"
   height="100mm"
   viewBox="0 0 200 100"
   version="1.1"
   id="svg8"
   inkscape:version="0.92.4 (5da689c313, 2019-01-14)"
   sodipodi:docname="Frame body.svg">
  <defs
     id="defs2">
    <clipPath
       id="clipPath893"
       clipPathUnits="userSpaceOnUse">
      <path
         inkscape:connector-curvature="0"
         id="path891"
         d="M 0,0 V 892.97998 H 1262.88 V 0 H 0" />
    </clipPath>
  </defs>
  <sodipodi:namedview
     id="base"
     pagecolor="#ffffff"
     bordercolor="#666666"
     borderopacity="1.0"
     inkscape:pageopacity="0.0"
     inkscape:pageshadow="2"
     inkscape:zoom="15.839192"
     inkscape:cx="503.41605"
     inkscape:cy="249.57786"
     inkscape:document-units="mm"
     inkscape:current-layer="g887"
     showgrid="false"
     inkscape:window-width="1366"
     inkscape:window-height="716"
     inkscape:window-x="-8"
     inkscape:window-y="-8"
     inkscape:window-maximized="1" />
  <metadata
     id="metadata5">
    <rdf:RDF>
      <cc:Work
         rdf:about="">
        <dc:format>image/svg+xml</dc:format>
        <dc:type
           rdf:resource="http://purl.org/dc/dcmitype/StillImage" />
        <dc:title></dc:title>
      </cc:Work>
    </rdf:RDF>
  </metadata>
  <g
     inkscape:label="Layer 1"
     inkscape:groupmode="layer"
     id="layer1"
     transform="translate(0,-197)">
    <g
       id="g887"
       transform="matrix(0.35277777,0,0,-0.35277777,-74.734673,355.97889)">
      <g
         transform="rotate(89.99427,3.3139219,325.27644)"
         id="g895">
        <path
           inkscape:connector-curvature="0"
           id="path897"
           style="fill:none;stroke:#000000;stroke-width:1.44000006;stroke-linecap:round;stroke-linejoin:round;stroke-miterlimit:10;stroke-dasharray:none;stroke-opacity:1"
           d="M 8.55,0 C 8.55,4.72171 4.72253,8.54955 8.2e-4,8.55" />
      </g>
      <path
         inkscape:connector-curvature="0"
         id="path899"
         style="fill:none;stroke:#000000;stroke-width:1.44000006;stroke-linecap:round;stroke-linejoin:round;stroke-miterlimit:10;stroke-dasharray:none;stroke-opacity:1"
         d="m 328.59088,330.47999 39.59995,2e-5"
         sodipodi:nodetypes="cc" />
      <path
         inkscape:connector-curvature="0"
         id="path901"
         style="fill:none;stroke:#000000;stroke-width:1.44000006;stroke-linecap:round;stroke-linejoin:round;stroke-miterlimit:10;stroke-dasharray:none;stroke-opacity:1"
         d="m 376.73999,322.01999 c 0,4.72171 -3.82745,8.45956 -8.54916,8.46002"
         sodipodi:nodetypes="cc" />
      <path
         inkscape:connector-curvature="0"
         id="path903"
         style="fill:none;stroke:#000000;stroke-width:1.44000006;stroke-linecap:round;stroke-linejoin:round;stroke-miterlimit:10;stroke-dasharray:none;stroke-opacity:1"
         d="m 376.73999,322.01999 v -39.78" />
      <g
         transform="rotate(-90.00573,325.24589,-42.911582)"
         id="g905">
        <path
           inkscape:connector-curvature="0"
           id="path907"
           style="fill:none;stroke:#000000;stroke-width:1.44000006;stroke-linecap:round;stroke-linejoin:round;stroke-miterlimit:10;stroke-dasharray:none;stroke-opacity:1"
           d="m 8.5500059,0.09085629 c 0,4.72171001 -3.7391261,8.45869391 -8.46083606,8.45914391"
           sodipodi:nodetypes="cc" />
      </g>
      <path
         inkscape:connector-curvature="0"
         id="path909"
         style="fill:none;stroke:#000000;stroke-width:1.44000006;stroke-linecap:round;stroke-linejoin:round;stroke-miterlimit:10;stroke-dasharray:none;stroke-opacity:1"
         d="m 368.28,273.78 -39.69164,1e-5"
         sodipodi:nodetypes="cc" />
      <g
         transform="rotate(179.99427,164.28796,141.17322)"
         id="g911">
        <path
           inkscape:connector-curvature="0"
           id="path913"
           style="fill:none;stroke:#000000;stroke-width:1.44000006;stroke-linecap:round;stroke-linejoin:round;stroke-miterlimit:10;stroke-dasharray:none;stroke-opacity:1"
           d="M 8.5500185,0.09087435 C 8.5500185,4.8125844 4.72253,8.54955 8.2e-4,8.55"
           sodipodi:nodetypes="cc" />
      </g>
      <path
         inkscape:connector-curvature="0"
         id="path915"
         style="fill:none;stroke:#000000;stroke-width:1.44000006;stroke-linecap:round;stroke-linejoin:round;stroke-miterlimit:10;stroke-dasharray:none;stroke-opacity:1"
         d="m 320.04001,282.23999 2e-5,39.69167"
         sodipodi:nodetypes="cc" />
      <g
         transform="rotate(89.99427,43.727958,284.86644)"
         id="g917">
        <path
           inkscape:connector-curvature="0"
           id="path919"
           style="fill:none;stroke:#000000;stroke-width:1.44000006;stroke-linecap:round;stroke-linejoin:round;stroke-miterlimit:10;stroke-dasharray:none;stroke-opacity:1"
           d="M 8.5500155,-0.08911148 C 8.5500155,4.6325985 4.72253,8.54955 8.2e-4,8.55"
           sodipodi:nodetypes="cc" />
      </g>
      <path
         inkscape:connector-curvature="0"
         id="path921"
         style="fill:none;stroke:#000000;stroke-width:1.44000006;stroke-linecap:round;stroke-linejoin:round;stroke-miterlimit:10;stroke-dasharray:none;stroke-opacity:1"
         d="m 328.67999,249.66 39.59949,0"
         sodipodi:nodetypes="cc" />
      <g
         transform="rotate(-0.0108862,1269183.9,-1938179.3)"
         id="g923">
        <path
           inkscape:connector-curvature="0"
           id="path925"
           style="fill:none;stroke:#000000;stroke-width:1.44000006;stroke-linecap:round;stroke-linejoin:round;stroke-miterlimit:10;stroke-dasharray:none;stroke-opacity:1"
           d="M 8.4629352,0.09161064 C 8.4629352,4.8133206 4.72253,8.54955 8.2e-4,8.55"
           sodipodi:nodetypes="cc" />
      </g>
      <path
         inkscape:connector-curvature="0"
         id="path927"
         style="fill:none;stroke:#000000;stroke-width:1.44000006;stroke-linecap:round;stroke-linejoin:round;stroke-miterlimit:10;stroke-dasharray:none;stroke-opacity:1"
         d="m 376.73999,241.2 0.0909,-2.79167"
         sodipodi:nodetypes="cc" />
      <g
         transform="rotate(-90.00573,303.33351,-64.917013)"
         id="g929">
        <path
           inkscape:connector-curvature="0"
           id="path931"
           style="fill:none;stroke:#000000;stroke-width:1.44000006;stroke-linecap:round;stroke-linejoin:round;stroke-miterlimit:10;stroke-dasharray:none;stroke-opacity:1"
           d="M 8.55,0 C 8.55,4.72171 4.72253,8.54955 8.2e-4,8.55" />
      </g>
      <path
         inkscape:connector-curvature="0"
         id="path933"
         style="fill:none;stroke:#000000;stroke-width:1.44000006;stroke-linecap:round;stroke-linejoin:round;stroke-miterlimit:10;stroke-dasharray:none;stroke-opacity:1"
         d="m 368.28,229.86 -39.69164,-0.18001"
         sodipodi:nodetypes="cc" />
      <g
         transform="rotate(179.99427,164.28906,119.12321)"
         id="g935">
        <path
           inkscape:connector-curvature="0"
           id="path937"
           style="fill:none;stroke:#000000;stroke-width:1.44000006;stroke-linecap:round;stroke-linejoin:round;stroke-miterlimit:10;stroke-dasharray:none;stroke-opacity:1"
           d="M 8.5500313,-0.08916565 C 8.5500313,4.6325444 4.72253,8.54955 8.2e-4,8.55"
           sodipodi:nodetypes="cc" />
      </g>
      <path
         inkscape:connector-curvature="0"
         id="path939"
         style="fill:none;stroke:#000000;stroke-width:1.44000006;stroke-linecap:round;stroke-linejoin:round;stroke-miterlimit:10;stroke-dasharray:none;stroke-opacity:1"
         d="m 320.04001,238.32001 1e-5,2.79166"
         sodipodi:nodetypes="cc" />
      <g
         transform="rotate(-90.00573,357.46236,-4.3919073)"
         id="g941">
        <path
           inkscape:connector-curvature="0"
           id="path943"
           style="fill:none;stroke:#000000;stroke-width:1.44000006;stroke-linecap:round;stroke-linejoin:round;stroke-miterlimit:10;stroke-dasharray:none;stroke-opacity:1"
           d="m 2.79,0 c 0,0.99671 -0.5317,1.91771 -1.39485,2.41612 -0.86314,0.49841 -1.9266,0.49851 -2.78984,2.7e-4" />
      </g>
      <path
         inkscape:connector-curvature="0"
         id="path945"
         style="fill:none;stroke:#000000;stroke-width:1.44000006;stroke-linecap:round;stroke-linejoin:round;stroke-miterlimit:10;stroke-dasharray:none;stroke-opacity:1"
         d="m 361.88974,350.28001 -27.00028,0"
         sodipodi:nodetypes="cc" />
      <g
         transform="matrix(-0.86599,0.50006,-0.50006,-0.86599,334.89001,353.07001)"
         id="g947">
        <path
           inkscape:connector-curvature="0"
           id="path949"
           style="fill:none;stroke:#000000;stroke-width:1.44000006;stroke-linecap:round;stroke-linejoin:round;stroke-miterlimit:10;stroke-dasharray:none;stroke-opacity:1"
           d="m 2.79,0 c 0,0.99671 -0.5317,1.91771 -1.39485,2.41612 -0.86314,0.49841 -1.9266,0.49851 -2.78984,2.7e-4" />
      </g>
      <path
         inkscape:connector-curvature="0"
         id="path951"
         style="fill:none;stroke:#000000;stroke-width:1.44000006;stroke-linecap:round;stroke-linejoin:round;stroke-miterlimit:10;stroke-dasharray:none;stroke-opacity:1"
         d="m 332.4739,354.46518 13.50013,23.40021"
         sodipodi:nodetypes="cc" />
      <g
         transform="matrix(0.86604,0.49997,-0.49997,0.86604,348.39001,376.47)"
         id="g953">
        <path
           inkscape:connector-curvature="0"
           id="path955"
           style="fill:none;stroke:#000000;stroke-width:1.44000006;stroke-linecap:round;stroke-linejoin:round;stroke-miterlimit:10;stroke-dasharray:none;stroke-opacity:1"
           d="m 2.79,0 c 0,0.99671 -0.5317,1.91771 -1.39485,2.41612 -0.86314,0.49841 -1.9266,0.49851 -2.78984,2.7e-4" />
      </g>
      <path
         inkscape:connector-curvature="0"
         id="path957"
         style="fill:none;stroke:#000000;stroke-width:1.44000006;stroke-linecap:round;stroke-linejoin:round;stroke-miterlimit:10;stroke-dasharray:none;stroke-opacity:1"
         d="m 350.80626,377.86492 13.50029,-23.40046"
         sodipodi:nodetypes="cc" />
      <g
         transform="rotate(179.99427,218.83005,98.785942)"
         id="g959">
        <path
           inkscape:connector-curvature="0"
           id="path961"
           style="fill:none;stroke:#000000;stroke-width:1.44000006;stroke-linecap:round;stroke-linejoin:round;stroke-miterlimit:10;stroke-dasharray:none;stroke-opacity:1"
           d="M 4.23,0 C 4.23,2.33609 2.33629,4.22989 2e-4,4.23 -2.33588,4.23011 -4.22978,2.33649 -4.23,4.1e-4 -4.23022,-2.33568 -2.33669,-4.22966 -6.1e-4,-4.23 2.33548,-4.23034 4.22955,-2.3369 4.23,-8.1e-4" />
      </g>
      <g
         transform="rotate(179.99427,202.53957,108.50512)"
         id="g963">
        <path
           inkscape:connector-curvature="0"
           id="path965"
           style="fill:none;stroke:#000000;stroke-width:1.44000006;stroke-linecap:round;stroke-linejoin:round;stroke-miterlimit:10;stroke-dasharray:none;stroke-opacity:1"
           d="M 4.23,0 C 4.23,2.33609 2.33629,4.22989 2e-4,4.23 -2.33588,4.23011 -4.22978,2.33649 -4.23,4.1e-4 -4.23022,-2.33568 -2.33669,-4.22966 -6.1e-4,-4.23 2.33548,-4.23034 4.22955,-2.3369 4.23,-8.1e-4" />
      </g>
      <g
         transform="rotate(179.99427,145.83957,108.50229)"
         id="g967">
        <path
           inkscape:connector-curvature="0"
           id="path969"
           style="fill:none;stroke:#000000;stroke-width:1.44000006;stroke-linecap:round;stroke-linejoin:round;stroke-miterlimit:10;stroke-dasharray:none;stroke-opacity:1"
           d="M 4.23,0 C 4.23,2.33609 2.33629,4.22989 2e-4,4.23 -2.33588,4.23011 -4.22978,2.33649 -4.23,4.1e-4 -4.23022,-2.33568 -2.33669,-4.22966 -6.1e-4,-4.23 2.33548,-4.23034 4.22955,-2.3369 4.23,-8.1e-4" />
      </g>
      <g
         transform="rotate(179.99427,129.55006,98.781478)"
         id="g971">
        <path
           inkscape:connector-curvature="0"
           id="path973"
           style="fill:none;stroke:#000000;stroke-width:1.44000006;stroke-linecap:round;stroke-linejoin:round;stroke-miterlimit:10;stroke-dasharray:none;stroke-opacity:1"
           d="M 4.23,0 C 4.23,2.33609 2.33629,4.22989 2e-4,4.23 -2.33588,4.23011 -4.22978,2.33649 -4.23,4.1e-4 -4.23022,-2.33568 -2.33669,-4.22966 -6.1e-4,-4.23 2.33548,-4.23034 4.22955,-2.3369 4.23,-8.1e-4" />
      </g>
      <g
         transform="rotate(179.99427,202.53532,193.55513)"
         id="g975">
        <path
           inkscape:connector-curvature="0"
           id="path977"
           style="fill:none;stroke:#000000;stroke-width:1.44000006;stroke-linecap:round;stroke-linejoin:round;stroke-miterlimit:10;stroke-dasharray:none;stroke-opacity:1"
           d="M 4.23,0 C 4.23,2.33609 2.33629,4.22989 2e-4,4.23 -2.33588,4.23011 -4.22978,2.33649 -4.23,4.1e-4 -4.23022,-2.33568 -2.33669,-4.22966 -6.1e-4,-4.23 2.33548,-4.23034 4.22955,-2.3369 4.23,-8.1e-4" />
      </g>
      <g
         transform="rotate(179.99427,218.82483,203.27594)"
         id="g979">
        <path
           inkscape:connector-curvature="0"
           id="path981"
           style="fill:none;stroke:#000000;stroke-width:1.44000006;stroke-linecap:round;stroke-linejoin:round;stroke-miterlimit:10;stroke-dasharray:none;stroke-opacity:1"
           d="M 4.23,0 C 4.23,2.33609 2.33629,4.22989 2e-4,4.23 -2.33588,4.23011 -4.22978,2.33649 -4.23,4.1e-4 -4.23022,-2.33568 -2.33669,-4.22966 -6.1e-4,-4.23 2.33548,-4.23034 4.22955,-2.3369 4.23,-8.1e-4" />
      </g>
      <g
         transform="rotate(179.99427,129.54483,203.27148)"
         id="g983">
        <path
           inkscape:connector-curvature="0"
           id="path985"
           style="fill:none;stroke:#000000;stroke-width:1.44000006;stroke-linecap:round;stroke-linejoin:round;stroke-miterlimit:10;stroke-dasharray:none;stroke-opacity:1"
           d="M 4.23,0 C 4.23,2.33609 2.33629,4.22989 2e-4,4.23 -2.33588,4.23011 -4.22978,2.33649 -4.23,4.1e-4 -4.23022,-2.33568 -2.33669,-4.22966 -6.1e-4,-4.23 2.33548,-4.23034 4.22955,-2.3369 4.23,-8.1e-4" />
      </g>
      <g
         transform="rotate(179.99427,145.83532,193.55229)"
         id="g987">
        <path
           inkscape:connector-curvature="0"
           id="path989"
           style="fill:none;stroke:#000000;stroke-width:1.44000006;stroke-linecap:round;stroke-linejoin:round;stroke-miterlimit:10;stroke-dasharray:none;stroke-opacity:1"
           d="M 4.23,0 C 4.23,2.33609 2.33629,4.22989 2e-4,4.23 -2.33588,4.23011 -4.22978,2.33649 -4.23,4.1e-4 -4.23022,-2.33568 -2.33669,-4.22966 -6.1e-4,-4.23 2.33548,-4.23034 4.22955,-2.3369 4.23,-8.1e-4" />
      </g>
      <g
         transform="rotate(179.99427,195.42851,129.83477)"
         id="g991">
        <path
           inkscape:connector-curvature="0"
           id="path993"
           style="fill:none;stroke:#000000;stroke-width:1.44000006;stroke-linecap:round;stroke-linejoin:round;stroke-miterlimit:10;stroke-dasharray:none;stroke-opacity:1"
           d="M 4.23,0 C 4.23,2.33609 2.33629,4.22989 2e-4,4.23 -2.33588,4.23011 -4.22978,2.33649 -4.23,4.1e-4 -4.23022,-2.33568 -2.33669,-4.22966 -6.1e-4,-4.23 2.33548,-4.23034 4.22955,-2.3369 4.23,-8.1e-4" />
      </g>
      <g
         transform="rotate(179.99427,152.94851,129.83264)"
         id="g995">
        <path
           inkscape:connector-curvature="0"
           id="path997"
           style="fill:none;stroke:#000000;stroke-width:1.44000006;stroke-linecap:round;stroke-linejoin:round;stroke-miterlimit:10;stroke-dasharray:none;stroke-opacity:1"
           d="M 4.23,0 C 4.23,2.33609 2.33629,4.22989 2e-4,4.23 -2.33588,4.23011 -4.22978,2.33649 -4.23,4.1e-4 -4.23022,-2.33568 -2.33669,-4.22966 -6.1e-4,-4.23 2.33548,-4.23034 4.22955,-2.3369 4.23,-8.1e-4" />
      </g>
      <g
         transform="rotate(179.99427,195.42638,172.31477)"
         id="g999">
        <path
           inkscape:connector-curvature="0"
           id="path1001"
           style="fill:none;stroke:#000000;stroke-width:1.44000006;stroke-linecap:round;stroke-linejoin:round;stroke-miterlimit:10;stroke-dasharray:none;stroke-opacity:1"
           d="M 4.23,0 C 4.23,2.33609 2.33629,4.22989 2e-4,4.23 -2.33588,4.23011 -4.22978,2.33649 -4.23,4.1e-4 -4.23022,-2.33568 -2.33669,-4.22966 -6.1e-4,-4.23 2.33548,-4.23034 4.22955,-2.3369 4.23,-8.1e-4" />
      </g>
      <g
         transform="rotate(179.99427,152.94638,172.31264)"
         id="g1003">
        <path
           inkscape:connector-curvature="0"
           id="path1005"
           style="fill:none;stroke:#000000;stroke-width:1.44000006;stroke-linecap:round;stroke-linejoin:round;stroke-miterlimit:10;stroke-dasharray:none;stroke-opacity:1"
           d="M 4.23,0 C 4.23,2.33609 2.33629,4.22989 2e-4,4.23 -2.33588,4.23011 -4.22978,2.33649 -4.23,4.1e-4 -4.23022,-2.33568 -2.33669,-4.22966 -6.1e-4,-4.23 2.33548,-4.23034 4.22955,-2.3369 4.23,-8.1e-4" />
      </g>
      <g
         transform="matrix(0.53386,-0.84557,0.84557,0.53386,437.66998,406.53003)"
         id="g1007">
        <path
           inkscape:connector-curvature="0"
           id="path1009"
           style="fill:none;stroke:#000000;stroke-width:1.44000006;stroke-linecap:round;stroke-linejoin:round;stroke-miterlimit:10;stroke-dasharray:none;stroke-opacity:1"
           d="m 19.89,0 c 0,10.8864 -8.75182,19.75011 -19.63734,19.8884 -10.88552,0.13828 -19.870359,-8.467847 -20.146909,-19.35073652"
           sodipodi:nodetypes="csc" />
      </g>
      <g
         transform="matrix(-0.53394,0.84552,-0.84552,-0.53394,452.78998,382.59003)"
         id="g1011">
        <path
           inkscape:connector-curvature="0"
           id="path1013"
           style="fill:none;stroke:#000000;stroke-width:1.44000006;stroke-linecap:round;stroke-linejoin:round;stroke-miterlimit:10;stroke-dasharray:none;stroke-opacity:1"
           d="m 8.4250438,0.00361521 c 0,0.37639 0.1001062,0.74875479 0.050556,1.12186479"
           sodipodi:nodetypes="cc" />
      </g>
      <g
         transform="matrix(-0.64067,0.76781,-0.76781,-0.64067,520.10999,302.13)"
         id="g1015">
        <path
           inkscape:connector-curvature="0"
           id="path1017"
           style="fill:none;stroke:#000000;stroke-width:1.44000006;stroke-linecap:round;stroke-linejoin:round;stroke-miterlimit:10;stroke-dasharray:none;stroke-opacity:1"
           d="m 113.45897,0.13978274 c 0,16.22313026 -3.63263,32.11733726 -10.36438,46.87788726"
           sodipodi:nodetypes="cc" />
      </g>
      <g
         transform="matrix(-0.90151,0.43275,-0.43275,-0.90151,443.42999,338.85001)"
         id="g1019">
        <path
           inkscape:connector-curvature="0"
           id="path1021"
           style="fill:none;stroke:#000000;stroke-width:1.44000006;stroke-linecap:round;stroke-linejoin:round;stroke-miterlimit:10;stroke-dasharray:none;stroke-opacity:1"
           d="M 28.290872,-0.07915802 C 28.290872,4.166902 27.39623,8.4379 25.55912,12.26596"
           sodipodi:nodetypes="cc" />
      </g>
      <path
         inkscape:connector-curvature="0"
         id="path1023"
         style="fill:none;stroke:#000000;stroke-width:1.44000006;stroke-linecap:round;stroke-linejoin:round;stroke-miterlimit:10;stroke-dasharray:none;stroke-opacity:1"
         d="m 415.07999,265.32001 10e-5,73.53282"
         sodipodi:nodetypes="cc" />
      <g
         transform="rotate(179.99427,221.70836,132.62608)"
         id="g1025">
        <path
           inkscape:connector-curvature="0"
           id="path1027"
           style="fill:none;stroke:#000000;stroke-width:1.44000006;stroke-linecap:round;stroke-linejoin:round;stroke-miterlimit:10;stroke-dasharray:none;stroke-opacity:1"
           d="m 28.350001,-0.08718792 c 0,4.24606002 -0.953775,8.52508592 -2.790885,12.35314592"
           sodipodi:nodetypes="cc" />
      </g>
      <g
         transform="matrix(-0.9016,-0.43258,0.43258,-0.9016,520.10999,302.13)"
         id="g1029">
        <path
           inkscape:connector-curvature="0"
           id="path1031"
           style="fill:none;stroke:#000000;stroke-width:1.44000006;stroke-linecap:round;stroke-linejoin:round;stroke-miterlimit:10;stroke-dasharray:none;stroke-opacity:1"
           d="M 113.4461,0.09860358 C 113.4461,16.321734 109.82634,32.25712 103.09459,47.01767"
           sodipodi:nodetypes="cc" />
      </g>
      <g
         transform="matrix(-0.64082,-0.76769,0.76769,-0.64082,452.78998,221.48999)"
         id="g1033">
        <path
           inkscape:connector-curvature="0"
           id="path1035"
           style="fill:none;stroke:#000000;stroke-width:1.44000006;stroke-linecap:round;stroke-linejoin:round;stroke-miterlimit:10;stroke-dasharray:none;stroke-opacity:1"
           d="m 8.263828,0.00580649 c 0,0.37639 0.261322,0.74656351 0.211772,1.11967351"
           sodipodi:nodetypes="cc" />
      </g>
      <g
         transform="matrix(-0.69673,-0.71734,0.71734,-0.69673,437.66998,197.55)"
         id="g1037">
        <path
           inkscape:connector-curvature="0"
           id="path1039"
           style="fill:none;stroke:#000000;stroke-width:1.44000006;stroke-linecap:round;stroke-linejoin:round;stroke-miterlimit:10;stroke-dasharray:none;stroke-opacity:1"
           d="m 19.89,0 c 0,7.59932 -4.3301,14.53449 -11.15793,17.87073 -6.82782,3.33624 -14.95991,2.4904 -20.95499,-2.17958 -5.99508,-4.66998 -8.681478,-12.3284382 -7.117548,-19.7650882"
           sodipodi:nodetypes="cssc" />
      </g>
      <g
         transform="matrix(0.69673,0.71734,-0.71734,0.69673,418.04999,177.20999)"
         id="g1041">
        <path
           inkscape:connector-curvature="0"
           id="path1043"
           style="fill:none;stroke:#000000;stroke-width:1.44000006;stroke-linecap:round;stroke-linejoin:round;stroke-miterlimit:10;stroke-dasharray:none;stroke-opacity:1"
           d="m 8.3702736,0.09729063 c 0,0.36846 0.1559032,0.63923896 0.1084232,1.00461897"
           sodipodi:nodetypes="cc" />
      </g>
      <g
         transform="matrix(0.59839,0.8012,-0.8012,0.59839,348.39001,84.15)"
         id="g1045">
        <path
           inkscape:connector-curvature="0"
           id="path1047"
           style="fill:none;stroke:#000000;stroke-width:1.44000006;stroke-linecap:round;stroke-linejoin:round;stroke-miterlimit:10;stroke-dasharray:none;stroke-opacity:1"
           d="M 124.7945,-0.1262079 C 124.7945,55.083882 88.34916,103.87575 35.41153,119.55254"
           sodipodi:nodetypes="cc" />
      </g>
      <g
         transform="matrix(-0.59831,0.80126,-0.80126,-0.59831,278.90997,177.20999)"
         id="g1049">
        <path
           inkscape:connector-curvature="0"
           id="path1051"
           style="fill:none;stroke:#000000;stroke-width:1.44000006;stroke-linecap:round;stroke-linejoin:round;stroke-miterlimit:10;stroke-dasharray:none;stroke-opacity:1"
           d="m 8.55,0 c 0,0.36846 -0.02382,0.73653 -0.0713,1.10191" />
      </g>
      <g
         transform="matrix(-0.53394,0.84552,-0.84552,-0.53394,259.10999,197.55)"
         id="g1053">
        <path
           inkscape:connector-curvature="0"
           id="path1055"
           style="fill:none;stroke:#000000;stroke-width:1.44000006;stroke-linecap:round;stroke-linejoin:round;stroke-miterlimit:10;stroke-dasharray:none;stroke-opacity:1"
           d="m 19.89,0 c 0,7.59932 -4.3301,14.53449 -11.15793,17.87073 -6.82782,3.33624 -14.95991,2.4904 -20.95499,-2.17958 -5.99508,-4.66998 -8.744207,-12.3750762 -7.180277,-19.8117262"
           sodipodi:nodetypes="cssc" />
      </g>
      <g
         transform="matrix(0.53386,-0.84557,0.84557,0.53386,243.98999,221.48999)"
         id="g1057">
        <path
           inkscape:connector-curvature="0"
           id="path1059"
           style="fill:none;stroke:#000000;stroke-width:1.44000006;stroke-linecap:round;stroke-linejoin:round;stroke-miterlimit:10;stroke-dasharray:none;stroke-opacity:1"
           d="m 8.42503,0.00253896 c 0,0.37639 0.10012,0.74983104 0.05057,1.12294104"
           sodipodi:nodetypes="cc" />
      </g>
      <g
         transform="matrix(0.6406,-0.76788,0.76788,0.6406,176.85001,302.13)"
         id="g1061">
        <path
           inkscape:connector-curvature="0"
           id="path1063"
           style="fill:none;stroke:#000000;stroke-width:1.44000006;stroke-linecap:round;stroke-linejoin:round;stroke-miterlimit:10;stroke-dasharray:none;stroke-opacity:1"
           d="m 113.48082,-0.10337344 c 0,16.22313044 -3.48366,32.25712044 -10.21541,47.01767044"
           sodipodi:nodetypes="cc" />
      </g>
      <g
         transform="matrix(0.90147,-0.43283,0.43283,0.90147,253.53,265.22998)"
         id="g1065">
        <path
           inkscape:connector-curvature="0"
           id="path1067"
           style="fill:none;stroke:#000000;stroke-width:1.44000006;stroke-linecap:round;stroke-linejoin:round;stroke-miterlimit:10;stroke-dasharray:none;stroke-opacity:1"
           d="m 28.326549,-0.09045673 c 0,4.24606003 -0.930314,8.52835783 -2.767424,12.35641773"
           sodipodi:nodetypes="cc" />
      </g>
      <path
         inkscape:connector-curvature="0"
         id="path1069"
         style="fill:none;stroke:#000000;stroke-width:1.44000006;stroke-linecap:round;stroke-linejoin:round;stroke-miterlimit:10;stroke-dasharray:none;stroke-opacity:1"
         d="m 281.88,338.94 -1.4e-4,-73.71538"
         sodipodi:nodetypes="cc" />
      <path
         inkscape:connector-curvature="0"
         id="path1071"
         style="fill:none;stroke:#000000;stroke-width:1.44000006;stroke-linecap:round;stroke-linejoin:round;stroke-miterlimit:10;stroke-dasharray:none;stroke-opacity:1"
         d="m 281.88,338.94 c 0,4.24606 -1.0371,8.38663 -2.87423,12.2147"
         sodipodi:nodetypes="cc" />
      <g
         transform="matrix(0.90156,0.43266,-0.43266,0.90156,176.85001,302.13)"
         id="g1073">
        <path
           inkscape:connector-curvature="0"
           id="path1075"
           style="fill:none;stroke:#000000;stroke-width:1.44000006;stroke-linecap:round;stroke-linejoin:round;stroke-miterlimit:10;stroke-dasharray:none;stroke-opacity:1"
           d="m 113.31,0 c 0,16.22313 -3.45715,32.277846 -10.1889,47.038396"
           sodipodi:nodetypes="cc" />
      </g>
      <g
         transform="rotate(50.152247,-286.81964,452.00905)"
         id="g1077">
        <path
           inkscape:connector-curvature="0"
           id="path1079"
           style="fill:none;stroke:#000000;stroke-width:1.44000006;stroke-linecap:round;stroke-linejoin:round;stroke-miterlimit:10;stroke-dasharray:none;stroke-opacity:1"
           d="m 8.55,0 c 0,0.37639 -0.02485,0.75237 -0.0744,1.12548" />
      </g>
      <g
         transform="matrix(0.51254,0.85866,-0.85866,0.51254,259.10999,406.53003)"
         id="g1081">
        <path
           inkscape:connector-curvature="0"
           id="path1083"
           style="fill:none;stroke:#000000;stroke-width:1.44000006;stroke-linecap:round;stroke-linejoin:round;stroke-miterlimit:10;stroke-dasharray:none;stroke-opacity:1"
           d="m 19.89,0 c 0,10.8864 -8.75182,19.75011 -19.63734,19.8884 -10.88552,0.13828 -19.734979,-8.509038 -20.011529,-19.39192765"
           sodipodi:nodetypes="csc" />
      </g>
      <g
         transform="matrix(-0.60688,-0.79479,0.79479,-0.60688,348.38998,527.31)"
         id="g1085">
        <path
           inkscape:connector-curvature="0"
           id="path1087"
           style="fill:none;stroke:#000000;stroke-width:1.44000006;stroke-linecap:round;stroke-linejoin:round;stroke-miterlimit:10;stroke-dasharray:none;stroke-opacity:1"
           d="m 130.41687,0.0777787 c 0,58.7811703 -39.33148,110.2193013 -96.03268,125.7176713"
           sodipodi:nodetypes="cc" />
      </g>
      <g
         transform="rotate(89.99427,133.99841,365.965)"
         id="g1089">
        <path
           inkscape:connector-curvature="0"
           id="path1091"
           style="fill:none;stroke:#000000;stroke-width:1.44000006;stroke-linecap:round;stroke-linejoin:round;stroke-miterlimit:10;stroke-dasharray:none;stroke-opacity:1"
           d="M 7.11,0 C 7.11,3.92661 3.92695,7.10981 3.4e-4,7.11 -3.92627,7.11019 -7.10962,3.92729 -7.11,6.8e-4" />
      </g>
      <path
         inkscape:connector-curvature="0"
         id="path1093"
         style="fill:none;stroke:#000000;stroke-width:1.44000006;stroke-linecap:round;stroke-linejoin:round;stroke-miterlimit:10;stroke-dasharray:none;stroke-opacity:1"
         d="m 499.95072,239.03999 68.04066,0"
         sodipodi:nodetypes="cc" />
      <g
         transform="rotate(-90.00573,399.94839,-168.0016)"
         id="g1095">
        <path
           inkscape:connector-curvature="0"
           id="path1097"
           style="fill:none;stroke:#000000;stroke-width:1.44000006;stroke-linecap:round;stroke-linejoin:round;stroke-miterlimit:10;stroke-dasharray:none;stroke-opacity:1"
           d="M 7.11,0 C 7.11,3.92661 3.92695,7.10981 3.4e-4,7.11 -3.92627,7.11019 -7.10962,3.92729 -7.11,6.8e-4" />
      </g>
      <path
         inkscape:connector-curvature="0"
         id="path1099"
         style="fill:none;stroke:#000000;stroke-width:1.44000006;stroke-linecap:round;stroke-linejoin:round;stroke-miterlimit:10;stroke-dasharray:none;stroke-opacity:1"
         d="m 567.98928,224.81999 -68.04066,0"
         sodipodi:nodetypes="cc" />
      <g
         transform="rotate(89.99427,116.9867,382.97501)"
         id="g1101">
        <path
           inkscape:connector-curvature="0"
           id="path1103"
           style="fill:none;stroke:#000000;stroke-width:1.44000006;stroke-linecap:round;stroke-linejoin:round;stroke-miterlimit:10;stroke-dasharray:none;stroke-opacity:1"
           d="M 7.11,0 C 7.11,3.92661 3.92695,7.10981 3.4e-4,7.11 -3.92627,7.11019 -7.10962,3.92729 -7.11,6.8e-4" />
      </g>
      <path
         inkscape:connector-curvature="0"
         id="path1105"
         style="fill:none;stroke:#000000;stroke-width:1.44000006;stroke-linecap:round;stroke-linejoin:round;stroke-miterlimit:10;stroke-dasharray:none;stroke-opacity:1"
         d="m 499.95072,273.06001 68.04066,0"
         sodipodi:nodetypes="cc" />
      <g
         transform="rotate(-90.00573,416.9567,-150.99159)"
         id="g1107">
        <path
           inkscape:connector-curvature="0"
           id="path1109"
           style="fill:none;stroke:#000000;stroke-width:1.44000006;stroke-linecap:round;stroke-linejoin:round;stroke-miterlimit:10;stroke-dasharray:none;stroke-opacity:1"
           d="M 7.11,0 C 7.11,3.92661 3.92695,7.10981 3.4e-4,7.11 -3.92627,7.11019 -7.10962,3.92729 -7.11,6.8e-4" />
      </g>
      <path
         inkscape:connector-curvature="0"
         id="path1111"
         style="fill:none;stroke:#000000;stroke-width:1.44000006;stroke-linecap:round;stroke-linejoin:round;stroke-miterlimit:10;stroke-dasharray:none;stroke-opacity:1"
         d="m 567.98928,258.84001 -68.04066,0"
         sodipodi:nodetypes="cc" />
      <g
         transform="rotate(89.99427,99.97502,399.98499)"
         id="g1113">
        <path
           inkscape:connector-curvature="0"
           id="path1115"
           style="fill:none;stroke:#000000;stroke-width:1.44000006;stroke-linecap:round;stroke-linejoin:round;stroke-miterlimit:10;stroke-dasharray:none;stroke-opacity:1"
           d="M 7.11,0 C 7.11,3.92661 3.92695,7.10981 3.4e-4,7.11 -3.92627,7.11019 -7.10962,3.92729 -7.11,6.8e-4" />
      </g>
      <path
         inkscape:connector-curvature="0"
         id="path1117"
         style="fill:none;stroke:#000000;stroke-width:1.44000006;stroke-linecap:round;stroke-linejoin:round;stroke-miterlimit:10;stroke-dasharray:none;stroke-opacity:1"
         d="m 499.95072,307.07997 68.04066,0"
         sodipodi:nodetypes="cc" />
      <g
         transform="rotate(-90.00573,433.96498,-133.98161)"
         id="g1119">
        <path
           inkscape:connector-curvature="0"
           id="path1121"
           style="fill:none;stroke:#000000;stroke-width:1.44000006;stroke-linecap:round;stroke-linejoin:round;stroke-miterlimit:10;stroke-dasharray:none;stroke-opacity:1"
           d="M 7.11,0 C 7.11,3.92661 3.92695,7.10981 3.4e-4,7.11 -3.92627,7.11019 -7.10962,3.92729 -7.11,6.8e-4" />
      </g>
      <path
         inkscape:connector-curvature="0"
         id="path1123"
         style="fill:none;stroke:#000000;stroke-width:1.44000006;stroke-linecap:round;stroke-linejoin:round;stroke-miterlimit:10;stroke-dasharray:none;stroke-opacity:1"
         d="m 567.98928,292.85997 -68.04066,0"
         sodipodi:nodetypes="cc" />
      <g
         transform="rotate(89.99427,82.963308,416.995)"
         id="g1125">
        <path
           inkscape:connector-curvature="0"
           id="path1127"
           style="fill:none;stroke:#000000;stroke-width:1.44000006;stroke-linecap:round;stroke-linejoin:round;stroke-miterlimit:10;stroke-dasharray:none;stroke-opacity:1"
           d="M 7.11,0 C 7.11,3.92661 3.92695,7.10981 3.4e-4,7.11 -3.92627,7.11019 -7.10962,3.92729 -7.11,6.8e-4" />
      </g>
      <path
         inkscape:connector-curvature="0"
         id="path1129"
         style="fill:none;stroke:#000000;stroke-width:1.44000006;stroke-linecap:round;stroke-linejoin:round;stroke-miterlimit:10;stroke-dasharray:none;stroke-opacity:1"
         d="m 499.95072,341.09999 68.04066,0"
         sodipodi:nodetypes="cc" />
      <g
         transform="rotate(-90.00573,450.97329,-116.9716)"
         id="g1131">
        <path
           inkscape:connector-curvature="0"
           id="path1133"
           style="fill:none;stroke:#000000;stroke-width:1.44000006;stroke-linecap:round;stroke-linejoin:round;stroke-miterlimit:10;stroke-dasharray:none;stroke-opacity:1"
           d="M 7.11,0 C 7.11,3.92661 3.92695,7.10981 3.4e-4,7.11 -3.92627,7.11019 -7.10962,3.92729 -7.11,6.8e-4" />
      </g>
      <path
         inkscape:connector-curvature="0"
         id="path1135"
         style="fill:none;stroke:#000000;stroke-width:1.44000006;stroke-linecap:round;stroke-linejoin:round;stroke-miterlimit:10;stroke-dasharray:none;stroke-opacity:1"
         d="m 567.98928,326.87999 -68.04066,0"
         sodipodi:nodetypes="cc" />
      <g
         transform="rotate(179.99427,295.32965,107.42977)"
         id="g1137">
        <path
           inkscape:connector-curvature="0"
           id="path1139"
           style="fill:none;stroke:#000000;stroke-width:1.44000006;stroke-linecap:round;stroke-linejoin:round;stroke-miterlimit:10;stroke-dasharray:none;stroke-opacity:1"
           d="M 4.23,0 C 4.23,2.33609 2.33629,4.22989 2e-4,4.23 -2.33588,4.23011 -4.22978,2.33649 -4.23,4.1e-4 -4.23022,-2.33568 -2.33669,-4.22966 -6.1e-4,-4.23 2.33548,-4.23034 4.22955,-2.3369 4.23,-8.1e-4" />
      </g>
      <g
         transform="rotate(179.99427,238.62964,107.42693)"
         id="g1141">
        <path
           inkscape:connector-curvature="0"
           id="path1143"
           style="fill:none;stroke:#000000;stroke-width:1.44000006;stroke-linecap:round;stroke-linejoin:round;stroke-miterlimit:10;stroke-dasharray:none;stroke-opacity:1"
           d="M 4.23,0 C 4.23,2.33609 2.33629,4.22989 2e-4,4.23 -2.33588,4.23011 -4.22978,2.33649 -4.23,4.1e-4 -4.23022,-2.33568 -2.33669,-4.22966 -6.1e-4,-4.23 2.33548,-4.23034 4.22955,-2.3369 4.23,-8.1e-4" />
      </g>
      <g
         transform="rotate(179.99427,295.3254,192.47976)"
         id="g1145">
        <path
           inkscape:connector-curvature="0"
           id="path1147"
           style="fill:none;stroke:#000000;stroke-width:1.44000006;stroke-linecap:round;stroke-linejoin:round;stroke-miterlimit:10;stroke-dasharray:none;stroke-opacity:1"
           d="M 4.23,0 C 4.23,2.33609 2.33629,4.22989 2e-4,4.23 -2.33588,4.23011 -4.22978,2.33649 -4.23,4.1e-4 -4.23022,-2.33568 -2.33669,-4.22966 -6.1e-4,-4.23 2.33548,-4.23034 4.22955,-2.3369 4.23,-8.1e-4" />
      </g>
      <g
         transform="rotate(179.99427,238.62539,192.47693)"
         id="g1149">
        <path
           inkscape:connector-curvature="0"
           id="path1151"
           style="fill:none;stroke:#000000;stroke-width:1.44000006;stroke-linecap:round;stroke-linejoin:round;stroke-miterlimit:10;stroke-dasharray:none;stroke-opacity:1"
           d="M 4.23,0 C 4.23,2.33609 2.33629,4.22989 2e-4,4.23 -2.33588,4.23011 -4.22978,2.33649 -4.23,4.1e-4 -4.23022,-2.33568 -2.33669,-4.22966 -6.1e-4,-4.23 2.33548,-4.23034 4.22955,-2.3369 4.23,-8.1e-4" />
      </g>
      <g
         transform="rotate(179.99427,257.07565,186.80785)"
         id="g1153">
        <path
           inkscape:connector-curvature="0"
           id="path1155"
           style="fill:none;stroke:#000000;stroke-width:1.44000006;stroke-linecap:round;stroke-linejoin:round;stroke-miterlimit:10;stroke-dasharray:none;stroke-opacity:1"
           d="M 14.31,-0.08856929 C 14.31,7.7146807 7.80461,14.12925 0.00135,14.13"
           sodipodi:nodetypes="cc" />
      </g>
      <path
         inkscape:connector-curvature="0"
         id="path1157"
         style="fill:none;stroke:#000000;stroke-width:1.44000006;stroke-linecap:round;stroke-linejoin:round;stroke-miterlimit:10;stroke-dasharray:none;stroke-opacity:1"
         d="m 553.85999,359.45999 -39.69277,0"
         sodipodi:nodetypes="cc" />
      <g
         transform="rotate(-90.00573,463.66133,-90.062324)"
         id="g1159">
        <path
           inkscape:connector-curvature="0"
           id="path1161"
           style="fill:none;stroke:#000000;stroke-width:1.44000006;stroke-linecap:round;stroke-linejoin:round;stroke-miterlimit:10;stroke-dasharray:none;stroke-opacity:1"
           d="M 14.129998,0.09138001 C 14.129998,7.89463 7.7118537,14.129238 -0.09140632,14.129988"
           sodipodi:nodetypes="cc" />
      </g>
      <path
         inkscape:connector-curvature="0"
         id="path1163"
         style="fill:none;stroke:#000000;stroke-width:1.44000006;stroke-linecap:round;stroke-linejoin:round;stroke-miterlimit:10;stroke-dasharray:none;stroke-opacity:1"
         d="m 590.58002,401.94 h -22.68 v -28.26001" />
      <g
         transform="rotate(-0.0108862,2056095.7,-3108589.2)"
         id="g1165">
        <path
           inkscape:connector-curvature="0"
           id="path1167"
           style="fill:none;stroke:#000000;stroke-width:1.44000006;stroke-linecap:round;stroke-linejoin:round;stroke-miterlimit:10;stroke-dasharray:none;stroke-opacity:1"
           d="m 11.25,0 c 0,6.21278 -5.1285139,11.337244 -11.34129386,11.337844"
           sodipodi:nodetypes="cc" />
      </g>
      <path
         inkscape:connector-curvature="0"
         id="path1169"
         style="fill:none;stroke:#000000;stroke-width:1.44000006;stroke-linecap:round;stroke-linejoin:round;stroke-miterlimit:10;stroke-dasharray:none;stroke-opacity:1"
         d="m 601.91998,364.5 -8.2e-4,26.1"
         sodipodi:nodetypes="cc" />
      <g
         transform="rotate(-50.757034,678.17949,-437.24562)"
         id="g1171">
        <path
           inkscape:connector-curvature="0"
           id="path1173"
           style="fill:none;stroke:#000000;stroke-width:1.44000006;stroke-linecap:round;stroke-linejoin:round;stroke-miterlimit:10;stroke-dasharray:none;stroke-opacity:1"
           d="m 14.210246,-0.10262472 c 0,4.24110002 -1.917405,8.30517872 -5.2014855,10.98877872"
           sodipodi:nodetypes="cc" />
      </g>
      <path
         inkscape:connector-curvature="0"
         id="path1175"
         style="fill:none;stroke:#000000;stroke-width:1.44000006;stroke-linecap:round;stroke-linejoin:round;stroke-miterlimit:10;stroke-dasharray:none;stroke-opacity:1"
         d="m 595.79999,352.79999 0.90002,0.72" />
      <g
         transform="matrix(-0.63269,0.77441,-0.77441,-0.63269,604.89001,341.91)"
         id="g1177">
        <path
           inkscape:connector-curvature="0"
           id="path1179"
           style="fill:none;stroke:#000000;stroke-width:1.44000006;stroke-linecap:round;stroke-linejoin:round;stroke-miterlimit:10;stroke-dasharray:none;stroke-opacity:1"
           d="m 14.184376,0.1494135 c 0,4.2411 -1.959376,8.1085065 -5.243456,10.7921065"
           sodipodi:nodetypes="cc" />
      </g>
      <path
         inkscape:connector-curvature="0"
         id="path1181"
         style="fill:none;stroke:#000000;stroke-width:1.44000006;stroke-linecap:round;stroke-linejoin:round;stroke-miterlimit:10;stroke-dasharray:none;stroke-opacity:1"
         d="m 590.58002,246.06 0.17994,95.85135"
         sodipodi:nodetypes="cc" />
      <g
         transform="rotate(179.99427,302.43885,123.00012)"
         id="g1183">
        <path
           inkscape:connector-curvature="0"
           id="path1185"
           style="fill:none;stroke:#000000;stroke-width:1.44000006;stroke-linecap:round;stroke-linejoin:round;stroke-miterlimit:10;stroke-dasharray:none;stroke-opacity:1"
           d="M 14.309988,-0.08857562 C 14.309988,4.8862544 11.51389,9.58312 7.24218,12.13292"
           sodipodi:nodetypes="cc" />
      </g>
      <path
         inkscape:connector-curvature="0"
         id="path1187"
         style="fill:none;stroke:#000000;stroke-width:1.44000006;stroke-linecap:round;stroke-linejoin:round;stroke-miterlimit:10;stroke-dasharray:none;stroke-opacity:1"
         d="m 597.96002,233.64 -0.36004,0.18001" />
      <path
         inkscape:connector-curvature="0"
         id="path1189"
         style="fill:none;stroke:#000000;stroke-width:1.44000006;stroke-linecap:round;stroke-linejoin:round;stroke-miterlimit:10;stroke-dasharray:none;stroke-opacity:1"
         d="m 604.79999,221.49001 c 0,4.97482 -2.56824,9.60019 -6.83997,12.14999"
         sodipodi:nodetypes="cc" />
      <path
         inkscape:connector-curvature="0"
         id="path1191"
         style="fill:none;stroke:#000000;stroke-width:1.44000006;stroke-linecap:round;stroke-linejoin:round;stroke-miterlimit:10;stroke-dasharray:none;stroke-opacity:1"
         d="m 604.79999,216.89999 v 4.59002"
         sodipodi:nodetypes="cc" />
      <g
         transform="matrix(0.27576,-0.96123,0.96123,0.27576,590.66998,216.98999)"
         id="g1193">
        <path
           inkscape:connector-curvature="0"
           id="path1195"
           style="fill:none;stroke:#000000;stroke-width:1.44000006;stroke-linecap:round;stroke-linejoin:round;stroke-miterlimit:10;stroke-dasharray:none;stroke-opacity:1"
           d="m 14.13,0 c 0,6.30212 -4.089584,11.81827 -10.1470244,13.55728"
           sodipodi:nodetypes="cc" />
      </g>
      <path
         inkscape:connector-curvature="0"
         id="path1197"
         style="fill:none;stroke:#000000;stroke-width:1.44000006;stroke-linecap:round;stroke-linejoin:round;stroke-miterlimit:10;stroke-dasharray:none;stroke-opacity:1"
         d="m 545.21997,190.71001 5.76001,0.09 43.58649,12.60781"
         sodipodi:nodetypes="ccc" />
      <path
         inkscape:connector-curvature="0"
         id="path1199"
         style="fill:none;stroke:#000000;stroke-width:1.44000006;stroke-linecap:round;stroke-linejoin:round;stroke-miterlimit:10;stroke-dasharray:none;stroke-opacity:1"
         d="m 545.21997,190.71001 c 0,6.21298 -5.03644,11.24969 -11.24945,11.25 -6.21295,2.9e-4 -11.24994,-5.03594 -11.25055,-11.24894" />
      <path
         inkscape:connector-curvature="0"
         id="path1201"
         style="fill:none;stroke:#000000;stroke-width:1.44000006;stroke-linecap:round;stroke-linejoin:round;stroke-miterlimit:10;stroke-dasharray:none;stroke-opacity:1"
         d="m 473.36961,203.40898 43.7704,-12.69791 h 5.57996"
         sodipodi:nodetypes="ccc" />
      <g
         transform="rotate(179.99427,238.62958,108.50693)"
         id="g1203">
        <path
           inkscape:connector-curvature="0"
           id="path1205"
           style="fill:none;stroke:#000000;stroke-width:1.44000006;stroke-linecap:round;stroke-linejoin:round;stroke-miterlimit:10;stroke-dasharray:none;stroke-opacity:1"
           d="m 14.13,0 c 0,6.30212 -4.1735179,11.842395 -10.2309579,13.581405"
           sodipodi:nodetypes="cc" />
      </g>
      <path
         inkscape:connector-curvature="0"
         id="path1207"
         style="fill:none;stroke:#000000;stroke-width:1.44000006;stroke-linecap:round;stroke-linejoin:round;stroke-miterlimit:10;stroke-dasharray:none;stroke-opacity:1"
         d="m 463.14001,221.58 0,-4.58859"
         sodipodi:nodetypes="cc" />
      <g
         transform="matrix(-0.51237,0.85876,-0.85876,-0.51237,477.27002,221.48999)"
         id="g1209">
        <path
           inkscape:connector-curvature="0"
           id="path1211"
           style="fill:none;stroke:#000000;stroke-width:1.44000006;stroke-linecap:round;stroke-linejoin:round;stroke-miterlimit:10;stroke-dasharray:none;stroke-opacity:1"
           d="m 14.169242,0.03506865 c 0,4.97483005 -2.580381,9.50339995 -6.8520915,12.05320035"
           sodipodi:nodetypes="cc" />
      </g>
      <path
         inkscape:connector-curvature="0"
         id="path1213"
         style="fill:none;stroke:#000000;stroke-width:1.44000006;stroke-linecap:round;stroke-linejoin:round;stroke-miterlimit:10;stroke-dasharray:none;stroke-opacity:1"
         d="M 470.34,233.82001 469.98001,233.64" />
      <g
         transform="matrix(0.51237,-0.85876,0.85876,0.51237,463.04999,245.97)"
         id="g1215">
        <path
           inkscape:connector-curvature="0"
           id="path1217"
           style="fill:none;stroke:#000000;stroke-width:1.44000006;stroke-linecap:round;stroke-linejoin:round;stroke-miterlimit:10;stroke-dasharray:none;stroke-opacity:1"
           d="m 14.169225,0.0350789 c 0,4.97483 -2.655335,9.5480411 -6.927045,12.0978411"
           sodipodi:nodetypes="cc" />
      </g>
      <path
         inkscape:connector-curvature="0"
         id="path1219"
         style="fill:none;stroke:#000000;stroke-width:1.44000006;stroke-linecap:round;stroke-linejoin:round;stroke-miterlimit:10;stroke-dasharray:none;stroke-opacity:1"
         d="m 477.17928,339.48 6.5e-4,-93.51275"
         sodipodi:nodetypes="cc" />
      <g
         transform="rotate(-0.0108862,1786982.2,-2436931.3)"
         id="g1221">
        <path
           inkscape:connector-curvature="0"
           id="path1223"
           style="fill:none;stroke:#000000;stroke-width:1.44000006;stroke-linecap:round;stroke-linejoin:round;stroke-miterlimit:10;stroke-dasharray:none;stroke-opacity:1"
           d="m 14.13,0 c 0,4.2411 -1.905,8.25792 -5.18908,10.94152" />
      </g>
      <path
         inkscape:connector-curvature="0"
         id="path1225"
         style="fill:none;stroke:#000000;stroke-width:1.44000006;stroke-linecap:round;stroke-linejoin:round;stroke-miterlimit:10;stroke-dasharray:none;stroke-opacity:1"
         d="m 471.06,351.17999 0.93228,-0.75748"
         sodipodi:nodetypes="cc" />
      <g
         transform="rotate(179.99427,240.06594,181.137)"
         id="g1227">
        <path
           inkscape:connector-curvature="0"
           id="path1229"
           style="fill:none;stroke:#000000;stroke-width:1.44000006;stroke-linecap:round;stroke-linejoin:round;stroke-miterlimit:10;stroke-dasharray:none;stroke-opacity:1"
           d="m 14.457951,0.22081158 c 0,4.24110002 -2.084984,8.16649812 -5.3690643,10.85009842"
           sodipodi:nodetypes="cc" />
      </g>
      <path
         inkscape:connector-curvature="0"
         id="path1231"
         style="fill:none;stroke:#000000;stroke-width:1.44000006;stroke-linecap:round;stroke-linejoin:round;stroke-miterlimit:10;stroke-dasharray:none;stroke-opacity:1"
         d="m 465.84,390.60001 -0.14798,-28.56938"
         sodipodi:nodetypes="cc" />
      <g
         transform="rotate(89.99427,43.270458,434.00386)"
         id="g1233">
        <path
           inkscape:connector-curvature="0"
           id="path1235"
           style="fill:none;stroke:#000000;stroke-width:1.44000006;stroke-linecap:round;stroke-linejoin:round;stroke-miterlimit:10;stroke-dasharray:none;stroke-opacity:1"
           d="m 11.249992,0.09112355 c 0,6.21277995 -5.1283437,11.33825545 -11.34112372,11.33885545"
           sodipodi:nodetypes="cc" />
      </g>
      <path
         inkscape:connector-curvature="0"
         id="path1237"
         style="fill:none;stroke:#000000;stroke-width:1.44000006;stroke-linecap:round;stroke-linejoin:round;stroke-miterlimit:10;stroke-dasharray:none;stroke-opacity:1"
         d="M 499.85999,373.67999 V 401.94 h -22.68" />
    </g>
  </g>
</svg>
