<?xml version="1.0" encoding="UTF-8" standalone="no"?>
<!-- Created with Inkscape (http://www.inkscape.org/) -->

<svg
   xmlns:dc="http://purl.org/dc/elements/1.1/"
   xmlns:cc="http://creativecommons.org/ns#"
   xmlns:rdf="http://www.w3.org/1999/02/22-rdf-syntax-ns#"
   xmlns:svg="http://www.w3.org/2000/svg"
   xmlns="http://www.w3.org/2000/svg"
   xmlns:sodipodi="http://sodipodi.sourceforge.net/DTD/sodipodi-0.dtd"
   xmlns:inkscape="http://www.inkscape.org/namespaces/inkscape"
   width="160mm"
   height="200mm"
   viewBox="0 0 160 200"
   version="1.1"
   id="svg8"
   inkscape:version="0.92.4 (5da689c313, 2019-01-14)"
   sodipodi:docname="Housing remot.svg">
  <defs
     id="defs2">
    <clipPath
       id="clipPath26"
       clipPathUnits="userSpaceOnUse">
      <path
         inkscape:connector-curvature="0"
         id="path24"
         d="M 0,0 V 892.97998 H 1262.88 V 0 H 0" />
    </clipPath>
  </defs>
  <sodipodi:namedview
     id="base"
     pagecolor="#ffffff"
     bordercolor="#666666"
     borderopacity="1.0"
     inkscape:pageopacity="0.0"
     inkscape:pageshadow="2"
     inkscape:zoom="0.35"
     inkscape:cx="400"
     inkscape:cy="560"
     inkscape:document-units="mm"
     inkscape:current-layer="layer1"
     showgrid="false"
     inkscape:window-width="1366"
     inkscape:window-height="716"
     inkscape:window-x="-8"
     inkscape:window-y="-8"
     inkscape:window-maximized="1" />
  <metadata
     id="metadata5">
    <rdf:RDF>
      <cc:Work
         rdf:about="">
        <dc:format>image/svg+xml</dc:format>
        <dc:type
           rdf:resource="http://purl.org/dc/dcmitype/StillImage" />
        <dc:title></dc:title>
      </cc:Work>
    </rdf:RDF>
  </metadata>
  <g
     inkscape:label="Layer 1"
     inkscape:groupmode="layer"
     id="layer1"
     transform="translate(0,-97)">
    <g
       transform="matrix(0.35277777,0,0,-0.35277777,-72.142006,308.25737)"
       inkscape:label="Atas"
       id="g18">
      <g
         id="g20">
        <g
           clip-path="url(#clipPath26)"
           id="g22">
          <g
             transform="rotate(179.99427,258.87275,245.21794)"
             id="g28">
            <path
               inkscape:connector-curvature="0"
               id="path30"
               style="fill:none;stroke:#000000;stroke-width:1.44000006;stroke-linecap:round;stroke-linejoin:round;stroke-miterlimit:10;stroke-dasharray:none;stroke-opacity:1"
               d="M 9.99,0 C 9.99,5.51714 5.51762,9.98974 4.8e-4,9.99 -5.51666,9.99026 -9.98947,5.5181 -9.99,9.6e-4 -9.99053,-5.51618 -5.51857,-9.98921 -0.00144,-9.99 5.5157,-9.99079 9.98894,-5.51905 9.99,-0.00192" />
          </g>
          <g
             transform="rotate(179.99427,258.15403,219.6579)"
             id="g32">
            <path
               inkscape:connector-curvature="0"
               id="path34"
               style="fill:none;stroke:#000000;stroke-width:1.44000006;stroke-linecap:round;stroke-linejoin:round;stroke-miterlimit:10;stroke-dasharray:none;stroke-opacity:1"
               d="M 9.99,0 C 9.99,5.51714 5.51762,9.98974 4.8e-4,9.99 -5.51666,9.99026 -9.98947,5.5181 -9.99,9.6e-4 -9.99053,-5.51618 -5.51857,-9.98921 -0.00144,-9.99 5.5157,-9.99079 9.98894,-5.51905 9.99,-0.00192" />
          </g>
          <g
             transform="rotate(179.99427,287.31332,233.87936)"
             id="g36">
            <path
               inkscape:connector-curvature="0"
               id="path38"
               style="fill:none;stroke:#000000;stroke-width:1.44000006;stroke-linecap:round;stroke-linejoin:round;stroke-miterlimit:10;stroke-dasharray:none;stroke-opacity:1"
               d="M 4.23,0 C 4.23,2.33609 2.33629,4.22989 2e-4,4.23 -2.33588,4.23011 -4.22978,2.33649 -4.23,4.1e-4 -4.23022,-2.33568 -2.33669,-4.22966 -6.1e-4,-4.23 2.33548,-4.23034 4.22955,-2.3369 4.23,-8.1e-4" />
          </g>
          <g
             transform="rotate(179.99427,137.7333,233.87188)"
             id="g40">
            <path
               inkscape:connector-curvature="0"
               id="path42"
               style="fill:none;stroke:#000000;stroke-width:1.44000006;stroke-linecap:round;stroke-linejoin:round;stroke-miterlimit:10;stroke-dasharray:none;stroke-opacity:1"
               d="M 4.23,0 C 4.23,2.33609 2.33629,4.22989 2e-4,4.23 -2.33588,4.23011 -4.22978,2.33649 -4.23,4.1e-4 -4.23022,-2.33568 -2.33669,-4.22966 -6.1e-4,-4.23 2.33548,-4.23034 4.22955,-2.3369 4.23,-8.1e-4" />
          </g>
          <g
             transform="rotate(179.99427,218.105,199.85591)"
             id="g44">
            <path
               inkscape:connector-curvature="0"
               id="path46"
               style="fill:none;stroke:#000000;stroke-width:1.44000006;stroke-linecap:round;stroke-linejoin:round;stroke-miterlimit:10;stroke-dasharray:none;stroke-opacity:1"
               d="M 4.23,0 C 4.23,2.33609 2.33629,4.22989 2e-4,4.23 -2.33588,4.23011 -4.22978,2.33649 -4.23,4.1e-4 -4.23022,-2.33568 -2.33669,-4.22966 -6.1e-4,-4.23 2.33548,-4.23034 4.22955,-2.3369 4.23,-8.1e-4" />
          </g>
          <g
             transform="rotate(179.99427,198.2221,58.104911)"
             id="g48">
            <path
               inkscape:connector-curvature="0"
               id="path50"
               style="fill:none;stroke:#000000;stroke-width:1.44000006;stroke-linecap:round;stroke-linejoin:round;stroke-miterlimit:10;stroke-dasharray:none;stroke-opacity:1"
               d="M 4.23,0 C 4.23,2.33609 2.33629,4.22989 2e-4,4.23 -2.33588,4.23011 -4.22978,2.33649 -4.23,4.1e-4 -4.23022,-2.33568 -2.33669,-4.22966 -6.1e-4,-4.23 2.33548,-4.23034 4.22955,-2.3369 4.23,-8.1e-4" />
          </g>
          <g
             transform="rotate(179.99427,150.96855,129.02255)"
             id="g52">
            <path
               inkscape:connector-curvature="0"
               id="path54"
               style="fill:none;stroke:#000000;stroke-width:1.44000006;stroke-linecap:round;stroke-linejoin:round;stroke-miterlimit:10;stroke-dasharray:none;stroke-opacity:1"
               d="M 4.23,0 C 4.23,2.33609 2.33629,4.22989 2e-4,4.23 -2.33588,4.23011 -4.22978,2.33649 -4.23,4.1e-4 -4.23022,-2.33568 -2.33669,-4.22966 -6.1e-4,-4.23 2.33548,-4.23034 4.22955,-2.3369 4.23,-8.1e-4" />
          </g>
          <g
             transform="rotate(179.99427,229.81287,42.536491)"
             id="g56">
            <path
               inkscape:connector-curvature="0"
               id="path58"
               style="fill:none;stroke:#000000;stroke-width:1.44000006;stroke-linecap:round;stroke-linejoin:round;stroke-miterlimit:10;stroke-dasharray:none;stroke-opacity:1"
               d="M 4.23,0 C 4.23,2.33609 2.33629,4.22989 2e-4,4.23 -2.33588,4.23011 -4.22978,2.33649 -4.23,4.1e-4 -4.23022,-2.33568 -2.33669,-4.22966 -6.1e-4,-4.23 2.33548,-4.23034 4.22955,-2.3369 4.23,-8.1e-4" />
          </g>
          <g
             transform="rotate(179.99427,130.63288,42.531532)"
             id="g60">
            <path
               inkscape:connector-curvature="0"
               id="path62"
               style="fill:none;stroke:#000000;stroke-width:1.44000006;stroke-linecap:round;stroke-linejoin:round;stroke-miterlimit:10;stroke-dasharray:none;stroke-opacity:1"
               d="M 4.23,0 C 4.23,2.33609 2.33629,4.22989 2e-4,4.23 -2.33588,4.23011 -4.22978,2.33649 -4.23,4.1e-4 -4.23022,-2.33568 -2.33669,-4.22966 -6.1e-4,-4.23 2.33548,-4.23034 4.22955,-2.3369 4.23,-8.1e-4" />
          </g>
          <path
             inkscape:connector-curvature="0"
             id="path64"
             style="fill:none;stroke:#000000;stroke-width:1.44000006;stroke-linecap:round;stroke-linejoin:round;stroke-miterlimit:10;stroke-dasharray:none;stroke-opacity:1"
             d="M 247.14,93.6 V 70.92" />
          <g
             transform="rotate(89.99427,79.645329,173.17264)"
             id="g66">
            <path
               inkscape:connector-curvature="0"
               id="path68"
               style="fill:none;stroke:#000000;stroke-width:1.44000006;stroke-linecap:round;stroke-linejoin:round;stroke-miterlimit:10;stroke-dasharray:none;stroke-opacity:1"
               d="M 5.67,0 C 5.67,3.13124 3.13179,5.6697 5.4e-4,5.67" />
          </g>
          <path
             inkscape:connector-curvature="0"
             id="path70"
             style="fill:none;stroke:#000000;stroke-width:1.44000006;stroke-linecap:round;stroke-linejoin:round;stroke-miterlimit:10;stroke-dasharray:none;stroke-opacity:1"
             d="m 307.26001,398.16 -41.94,-298.98 H 252.72" />
          <g
             transform="matrix(0.99025,-0.13933,0.13933,0.99025,296.01001,399.69)"
             id="g72">
            <path
               inkscape:connector-curvature="0"
               id="path74"
               style="fill:none;stroke:#000000;stroke-width:1.44000006;stroke-linecap:round;stroke-linejoin:round;stroke-miterlimit:10;stroke-dasharray:none;stroke-opacity:1"
               d="m 11.25,0 c 0,3.25675 -1.41133,6.35369 -3.86919,8.49036 -2.45787,2.13666 -5.72105,3.10335 -8.94613,2.65021" />
          </g>
          <path
             inkscape:connector-curvature="0"
             id="path76"
             style="fill:none;stroke:#000000;stroke-width:1.44000006;stroke-linecap:round;stroke-linejoin:round;stroke-miterlimit:10;stroke-dasharray:none;stroke-opacity:1"
             d="m 275.39999,410.94 h 20.70002" />
          <g
             transform="rotate(179.99427,137.73436,212.63189)"
             id="g78">
            <path
               inkscape:connector-curvature="0"
               id="path80"
               style="fill:none;stroke:#000000;stroke-width:1.44000006;stroke-linecap:round;stroke-linejoin:round;stroke-miterlimit:10;stroke-dasharray:none;stroke-opacity:1"
               d="m 14.13,0 c 0,7.80325 -6.32539,14.12925 -14.12865,14.13" />
          </g>
          <path
             inkscape:connector-curvature="0"
             id="path82"
             style="fill:none;stroke:#000000;stroke-width:1.44000006;stroke-linecap:round;stroke-linejoin:round;stroke-miterlimit:10;stroke-dasharray:none;stroke-opacity:1"
             d="M 261.17999,496.62 V 425.16" />
          <g
             transform="matrix(-0.53045,0.84771,-0.84771,-0.53045,275.48999,496.53)"
             id="g84">
            <path
               inkscape:connector-curvature="0"
               id="path86"
               style="fill:none;stroke:#000000;stroke-width:1.44000006;stroke-linecap:round;stroke-linejoin:round;stroke-miterlimit:10;stroke-dasharray:none;stroke-opacity:1"
               d="m 14.13,0 c 0,4.86822 -2.50603,9.3936 -6.63239,11.97676" />
          </g>
          <path
             inkscape:connector-curvature="0"
             id="path88"
             style="fill:none;stroke:#000000;stroke-width:1.44000006;stroke-linecap:round;stroke-linejoin:round;stroke-miterlimit:10;stroke-dasharray:none;stroke-opacity:1"
             d="m 289.62,522.17999 -21.78,-13.5" />
          <g
             transform="rotate(89.99427,-106.49551,403.75488)"
             id="g90">
            <path
               inkscape:connector-curvature="0"
               id="path92"
               style="fill:none;stroke:#000000;stroke-width:1.44000006;stroke-linecap:round;stroke-linejoin:round;stroke-miterlimit:10;stroke-dasharray:none;stroke-opacity:1"
               d="m 14.13,0 c 0,2.65128 -0.74593,5.24907 -2.15252,7.49646" />
          </g>
          <path
             inkscape:connector-curvature="0"
             id="path94"
             style="fill:none;stroke:#000000;stroke-width:1.44000006;stroke-linecap:round;stroke-linejoin:round;stroke-miterlimit:10;stroke-dasharray:none;stroke-opacity:1"
             d="m 580.67999,524.34003 h -283.5" />
          <g
             transform="matrix(0.99025,-0.13933,0.13933,0.99025,580.58997,510.21002)"
             id="g96">
            <path
               inkscape:connector-curvature="0"
               id="path98"
               style="fill:none;stroke:#000000;stroke-width:1.44000006;stroke-linecap:round;stroke-linejoin:round;stroke-miterlimit:10;stroke-dasharray:none;stroke-opacity:1"
               d="m 14.13,0 c 0,4.09048 -1.77262,7.98024 -4.8597,10.66389 -3.08708,2.68365 -7.18565,3.89781 -11.23634,3.32866" />
          </g>
          <path
             inkscape:connector-curvature="0"
             id="path100"
             style="fill:none;stroke:#000000;stroke-width:1.44000006;stroke-linecap:round;stroke-linejoin:round;stroke-miterlimit:10;stroke-dasharray:none;stroke-opacity:1"
             d="m 582.65997,423.17999 12.06,85.14002" />
          <g
             transform="rotate(-90.00573,496.95875,-71.701577)"
             id="g102">
            <path
               inkscape:connector-curvature="0"
               id="path104"
               style="fill:none;stroke:#000000;stroke-width:1.44000006;stroke-linecap:round;stroke-linejoin:round;stroke-miterlimit:10;stroke-dasharray:none;stroke-opacity:1"
               d="m 14.13,0 c 0,7.04366 -5.18757,13.01165 -12.16262,13.99237" />
          </g>
          <path
             inkscape:connector-curvature="0"
             id="path106"
             style="fill:none;stroke:#000000;stroke-width:1.44000006;stroke-linecap:round;stroke-linejoin:round;stroke-miterlimit:10;stroke-dasharray:none;stroke-opacity:1"
             d="M 464.57999,410.94 H 568.62" />
          <g
             transform="rotate(89.99427,33.820152,430.67322)"
             id="g108">
            <path
               inkscape:connector-curvature="0"
               id="path110"
               style="fill:none;stroke:#000000;stroke-width:1.44000006;stroke-linecap:round;stroke-linejoin:round;stroke-miterlimit:10;stroke-dasharray:none;stroke-opacity:1"
               d="m 14.13,0 c 0,7.04366 -5.18757,13.01165 -12.16262,13.99237" />
          </g>
          <path
             inkscape:connector-curvature="0"
             id="path112"
             style="fill:none;stroke:#000000;stroke-width:1.44000006;stroke-linecap:round;stroke-linejoin:round;stroke-miterlimit:10;stroke-dasharray:none;stroke-opacity:1"
             d="m 409.32001,105.66 41.22,293.22" />
          <g
             transform="rotate(171.99671,203.73758,66.934161)"
             id="g114">
            <path
               inkscape:connector-curvature="0"
               id="path116"
               style="fill:none;stroke:#000000;stroke-width:1.44000006;stroke-linecap:round;stroke-linejoin:round;stroke-miterlimit:10;stroke-dasharray:none;stroke-opacity:1"
               d="M 5.67,0 C 5.67,1.6414 4.95869,3.20226 3.71993,4.27914 2.48116,5.35602 0.83652,5.84323 -0.78892,5.61485" />
          </g>
          <path
             inkscape:connector-curvature="0"
             id="path118"
             style="fill:none;stroke:#000000;stroke-width:1.44000006;stroke-linecap:round;stroke-linejoin:round;stroke-miterlimit:10;stroke-dasharray:none;stroke-opacity:1"
             d="m 468.17999,99.18 h -53.28" />
          <path
             inkscape:connector-curvature="0"
             id="path120"
             style="fill:none;stroke:#000000;stroke-width:1.44000006;stroke-linecap:round;stroke-linejoin:round;stroke-miterlimit:10;stroke-dasharray:none;stroke-opacity:1"
             d="m 473.94,93.51 c 0,3.13124 -2.53821,5.6697 -5.66946,5.67" />
          <path
             inkscape:connector-curvature="0"
             id="path122"
             style="fill:none;stroke:#000000;stroke-width:1.44000006;stroke-linecap:round;stroke-linejoin:round;stroke-miterlimit:10;stroke-dasharray:none;stroke-opacity:1"
             d="m 247.14,70.92 h 226.8 V 93.6" />
        </g>
      </g>
    </g>
  </g>
</svg>
